<?xml version="1.0" encoding="UTF-8" standalone="no"?>
<svg
   width="128.00002"
   height="127.99999"
   viewBox="0 0 33.866671 33.866665"
   version="1.1"
   id="svg1"
   sodipodi:docname="io.github.rfrench3.scopebuddy-gui.svg"
   xmlns:inkscape="http://www.inkscape.org/namespaces/inkscape"
   xmlns:sodipodi="http://sodipodi.sourceforge.net/DTD/sodipodi-0.dtd"
   xmlns="http://www.w3.org/2000/svg"
   xmlns:svg="http://www.w3.org/2000/svg"
   xmlns:bx="https://boxy-svg.com">
  <sodipodi:namedview
     id="namedview1"
     pagecolor="#505050"
     bordercolor="#eeeeee"
     borderopacity="1"
     inkscape:showpageshadow="0"
     inkscape:pageopacity="0"
     inkscape:pagecheckerboard="0"
     inkscape:deskcolor="#505050">
    <inkscape:page
       x="0"
       y="0"
       width="33.866673"
       height="33.866665"
       id="page2"
       margin="0"
       bleed="0" />
  </sodipodi:namedview>
  <defs
     id="defs1">
    <bx:export>
      <bx:file
         format="svg"
         path="scbGui.svg"
         width="128"
         height="128" />
    </bx:export>
  </defs>
  <g
     id="svg3"
     transform="matrix(0.500389,0,0,0.500389,3.219839,8.621539)">
    <title
       id="title2">Basic icon</title>
    <rect
       ry="2.0969999"
       rx="2.0969999"
       y="-10.623"
       x="0.17200001"
       height="54.466999"
       width="54.466999"
       id="rect2896"
       style="display:inline;fill:#b3b3b3;fill-opacity:1;stroke-width:0px;stroke-linecap:butt;stroke-linejoin:miter;stroke-miterlimit:4;stroke-dasharray:none;stroke-dashoffset:0;stroke-opacity:0;marker:none;paint-order:stroke">
      <title
         id="title3">background</title>
    </rect>
    <path
       d="m 14.738476,-2.6967218 -2.872001,7.7879412 h 5.754482 z m -1.19492,-2.0858672 h 2.400321 l 5.964117,15.649254 H 19.706826 L 18.281308,6.8521535 H 11.22709 L 9.8015722,10.866665 H 7.5689591 Z m 12.766772,1.7399701 v 5.8802613 h 2.662364 c 0.985284,0 1.746959,-0.2550557 2.285022,-0.7651671 0.538063,-0.5101114 0.807095,-1.23684608 0.807095,-2.18020406 0,-0.93636884 -0.269032,-1.65960984 -0.807095,-2.16972304 -0.538063,-0.5101114 -1.299738,-0.7651671 -2.285022,-0.7651671 z M 24.193014,-4.782589 h 4.779678 c 1.753947,0 3.078142,0.3983061 3.972585,1.19492 0.90143,0.7896248 1.352145,1.9496042 1.352145,3.47994024 0,1.54431076 -0.450715,2.71127946 -1.352145,3.50090416 -0.894443,0.7896266 -2.218638,1.1844389 -3.972585,1.1844389 h -2.662364 v 6.2890507 h -2.117314 z m 15.062275,1.7399701 v 5.8802613 h 2.662366 c 0.985284,0 1.746958,-0.2550557 2.285021,-0.7651671 0.538062,-0.5101114 0.807095,-1.23684608 0.807095,-2.18020406 0,-0.93636884 -0.269033,-1.65960984 -0.807095,-2.16972304 -0.538063,-0.5101114 -1.299737,-0.7651671 -2.285021,-0.7651671 z M 37.137977,-4.782589 h 4.779678 c 1.753947,0 3.078141,0.3983061 3.972584,1.19492 0.90143,0.7896248 1.352145,1.9496042 1.352145,3.47994024 0,1.54431076 -0.450715,2.71127946 -1.352145,3.50090416 -0.894443,0.7896266 -2.218637,1.1844389 -3.972584,1.1844389 h -2.662366 v 6.2890507 h -2.117312 z"
       id="text1"
       style="white-space:pre;fill-opacity:0.647945;stroke:#ffffff;stroke-width:0;stroke-opacity:0"
       aria-label="APP&#10;ICON"
       sodipodi:nodetypes="cccccccccccccccsssssccscscsccccccsssssccscscscccc" />
    <path
       d="m 26.205078,40.591797 h 1.183594 v 8.748047 h -1.183594 z m 10.089844,0.673828 v 1.248047 c -0.398437,-0.371094 -0.824219,-0.648438 -1.277344,-0.832031 -0.449219,-0.183594 -0.927734,-0.275391 -1.435547,-0.275391 -1,0 -1.765625,0.306641 -2.296875,0.919922 -0.53125,0.609375 -0.796875,1.492187 -0.796875,2.648437 0,1.152344 0.265625,2.035157 0.796875,2.648438 0.53125,0.609375 1.296875,0.914062 2.296875,0.914062 0.507813,0 0.986328,-0.0918 1.435547,-0.27539 0.453125,-0.183594 0.878907,-0.460938 1.277344,-0.832032 v 1.236329 c -0.414063,0.28125 -0.853516,0.492187 -1.31836,0.632812 -0.460937,0.140625 -0.949218,0.210938 -1.464843,0.210938 -1.324219,0 -2.367188,-0.404297 -3.128907,-1.212891 -0.761719,-0.8125 -1.142578,-1.919922 -1.142578,-3.322266 0,-1.40625 0.380859,-2.513672 1.142578,-3.322265 0.761719,-0.8125 1.804688,-1.21875 3.128907,-1.21875 0.523437,0 1.015625,0.07031 1.476562,0.210937 0.464844,0.136719 0.900391,0.34375 1.306641,0.621094 z m 5.378906,0.128906 c -0.859375,0 -1.542968,0.320313 -2.050781,0.960938 -0.503907,0.640625 -0.75586,1.513671 -0.75586,2.61914 0,1.101563 0.251953,1.972657 0.75586,2.613282 0.507813,0.640625 1.191406,0.960937 2.050781,0.960937 0.859375,0 1.539063,-0.320312 2.039063,-0.960937 0.503906,-0.640625 0.755859,-1.511719 0.755859,-2.613282 0,-1.105469 -0.251953,-1.978515 -0.755859,-2.61914 -0.5,-0.640625 -1.179688,-0.960938 -2.039063,-0.960938 z m 0,-0.960937 c 1.226563,0 2.207031,0.412109 2.941406,1.236328 0.734375,0.820313 1.101563,1.921875 1.101563,3.304687 0,1.378907 -0.367188,2.480469 -1.101563,3.304688 -0.734375,0.820313 -1.714843,1.230469 -2.941406,1.230469 -1.230469,0 -2.214844,-0.410156 -2.953125,-1.230469 -0.734375,-0.820313 -1.101562,-1.921875 -1.101562,-3.304688 0,-1.382812 0.367187,-2.484374 1.101562,-3.304687 0.738281,-0.824219 1.722656,-1.236328 2.953125,-1.236328 z m 5.894531,0.158203 h 1.59375 l 3.878907,7.318359 v -7.318359 h 1.148437 v 8.748047 h -1.59375 l -3.878906,-7.31836 v 7.31836 h -1.148438 z"
       id="path1"
       style="white-space:pre;fill-opacity:0.647945;stroke:#ffffff;stroke-width:0;stroke-opacity:0"
       transform="matrix(1.7888854,0,0,1.7888854,-43.533069,-50.563381)"
       aria-label="APP&#10;ICON"
       sodipodi:nodetypes="ccccccccscscsccccscscsccscscscscsscscscscsccccccccccc" />
  </g>
</svg>
